<svg width="56" height="72" viewBox="0 0 56 72" fill="none" xmlns="http://www.w3.org/2000/svg">
<g id="Group 3">
<path id="Vector" d="M25.9987 29.009V53M25.9987 29.009L17.9991 37.006M25.9987 29.009L33.9982 37.006M47.9975 31.4081C49.4831 30.5512 50.7678 29.3858 51.7648 27.9905C52.7618 26.5952 53.448 25.0025 53.7771 23.3197C54.1062 21.6368 54.0705 19.903 53.6726 18.2351C53.2747 16.5672 52.5236 15.004 51.4702 13.6508C50.4167 12.2976 49.0853 11.1859 47.5657 10.3907C46.0461 9.59542 44.3736 9.13511 42.6609 9.04076C40.9483 8.94641 39.2353 9.22022 37.6375 9.84371C36.0396 10.4672 34.5941 11.4259 33.3983 12.6552C32.3497 8.93593 29.9896 5.72193 26.7543 3.60735C23.519 1.49276 19.6274 0.620575 15.7987 1.15203C11.97 1.68348 8.46327 3.58263 5.92671 6.4984C3.39014 9.41417 1.99529 13.1494 2.00001 17.0135C2.00285 20.6487 3.2443 24.1744 5.51982 27.0098" stroke="white" stroke-width="2" stroke-linecap="round" stroke-linejoin="round"/>
</g>
</svg>
