<svg width="211" height="77" viewBox="0 0 211 77" fill="none" xmlns="http://www.w3.org/2000/svg">
<g id="Group 1">
<g id="Group 427320857">
<rect id="Rectangle 2" width="211" height="77" rx="38.5" fill="url(#paint0_linear_13_910)"/>
<g id="step">
<mask id="mask0_13_910" style="mask-type:alpha" maskUnits="userSpaceOnUse" x="41" y="12" width="52" height="52">
<rect id="Bounding box" x="41" y="12" width="51.15" height="51.15" fill="#D9D9D9"/>
</mask>
<g mask="url(#mask0_13_910)">
<path id="step_2" d="M81.4939 43.9689C79.6824 43.9689 78.1639 43.3562 76.9384 42.1307C75.7129 40.9053 75.1002 39.3868 75.1002 37.5752C75.1002 35.7636 75.7129 34.2451 76.9384 33.0196C78.1639 31.7942 79.6824 31.1814 81.4939 31.1814C83.3055 31.1814 84.824 31.7942 86.0495 33.0196C87.275 34.2451 87.8877 35.7636 87.8877 37.5752C87.8877 39.3868 87.275 40.9053 86.0495 42.1307C84.824 43.3562 83.3055 43.9689 81.4939 43.9689ZM60.1814 48.2314L57.1977 45.1944L62.6857 39.7064H45.2627V35.4439H62.6857L57.1977 29.9027L60.1814 26.9189L70.8377 37.5752L60.1814 48.2314Z" fill="white"/>
</g>
</g>
<g id="step_3">
<mask id="mask1_13_910" style="mask-type:alpha" maskUnits="userSpaceOnUse" x="118" y="12" width="52" height="52">
<rect id="Bounding box_2" x="118" y="12" width="51.15" height="51.15" fill="#D9D9D9"/>
</mask>
<g mask="url(#mask1_13_910)">
<path id="step_4" d="M158.494 43.9689C156.682 43.9689 155.164 43.3562 153.938 42.1307C152.713 40.9053 152.1 39.3868 152.1 37.5752C152.1 35.7636 152.713 34.2451 153.938 33.0196C155.164 31.7942 156.682 31.1814 158.494 31.1814C160.306 31.1814 161.824 31.7942 163.049 33.0196C164.275 34.2451 164.888 35.7636 164.888 37.5752C164.888 39.3868 164.275 40.9053 163.049 42.1307C161.824 43.3562 160.306 43.9689 158.494 43.9689ZM137.181 48.2314L134.198 45.1944L139.686 39.7064H122.263V35.4439H139.686L134.198 29.9027L137.181 26.9189L147.838 37.5752L137.181 48.2314Z" fill="white"/>
</g>
</g>
</g>
</g>
<defs>
<linearGradient id="paint0_linear_13_910" x1="105.5" y1="0" x2="105.5" y2="77" gradientUnits="userSpaceOnUse">
<stop stop-color="#FAC2C2"/>
<stop offset="1" stop-color="#5933F0"/>
</linearGradient>
</defs>
</svg>
