<svg width="140" height="26" viewBox="0 0 140 26" fill="none" xmlns="http://www.w3.org/2000/svg">
    <path d="M46.01 16.18 38.665 1.742h-3.87v21.684h3.284V7.441l6.658 12.89h2.542l6.63-12.922v16.018h3.285V1.743H53.32L46.01 16.18zM71.661 15.993c0 1.612-.392 2.85-1.176 3.717-.783.867-1.785 1.3-3.006 1.3-2.438 0-3.655-1.487-3.655-4.459V8.062H60.54v8.829c0 2.292.53 4.016 1.595 5.174 1.065 1.158 2.525 1.734 4.383 1.734 1.197 0 2.258-.274 3.177-.822a5.356 5.356 0 0 0 2.09-2.247l.247 2.694h2.913V8.062H71.66v7.93zM86.933 7.69c-1.196 0-2.257.274-3.176.822a5.356 5.356 0 0 0-2.091 2.247l-.247-2.694h-2.912V23.43h3.283V15.5c0-1.613.4-2.85 1.193-3.718.794-.867 1.804-1.3 3.02-1.3 2.439 0 3.656 1.488 3.656 4.46v8.488h3.252v-8.828c0-2.293-.53-4.016-1.595-5.174-1.064-1.158-2.524-1.734-4.383-1.734V7.69zM106.977 15.993c0 1.612-.392 2.85-1.176 3.717-.784.867-1.786 1.3-3.007 1.3-2.437 0-3.655-1.487-3.655-4.459V8.062h-3.283v8.829c0 2.292.53 4.016 1.595 5.174 1.064 1.158 2.524 1.734 4.383 1.734 1.196 0 2.257-.274 3.176-.822a5.354 5.354 0 0 0 2.091-2.247l.247 2.694h2.912V8.062h-3.283v7.93zM118.625 4.156h-2.882l-.402 3.905h-2.632v2.757h2.632v7.59c0 1.88.444 3.188 1.331 3.92.888.734 2.084 1.099 3.593 1.099h2.542v-2.788h-1.765c-.888 0-1.512-.16-1.876-.48-.361-.318-.541-.9-.541-1.75v-7.591h4.338V8.06h-4.338V4.156zM139.071 11.377a7.146 7.146 0 0 0-2.601-2.68c-1.117-.674-2.428-1.007-3.936-1.007-1.509 0-2.906.34-4.075 1.023a7.098 7.098 0 0 0-2.725 2.85c-.652 1.218-.975 2.633-.975 4.245 0 1.613.33 2.986.992 4.183a7.148 7.148 0 0 0 2.743 2.802c1.165.672 2.504 1.005 4.012 1.005 1.817 0 3.34-.485 4.571-1.456 1.227-.971 2.049-2.178 2.462-3.624h-3.284a3.825 3.825 0 0 1-1.412 1.72c-.631.423-1.408.635-2.337.635-1.158 0-2.174-.389-3.052-1.162-.877-.774-1.369-1.904-1.47-3.392h11.957c.021-.287.035-.551.045-.79.01-.236.014-.458.014-.666 0-1.342-.309-2.573-.929-3.686zm-11.028 2.913c.187-1.3.701-2.279 1.55-2.927.846-.652 1.817-.975 2.913-.975 1.176 0 2.157.35 2.944 1.055.784.704 1.207 1.654 1.269 2.85h-8.672l-.004-.003zM20.151.446l-7.664 5.08L5.49.887A3.509 3.509 0 0 0 3.541.295 3.545 3.545 0 0 0 0 3.834v17.464a3.542 3.542 0 0 0 3.54 3.537c.69 0 1.363-.205 1.95-.593l6.997-4.636 7.668 5.08c1.761 1.169 4.116-.097 4.116-2.21V2.657c0-2.116-2.355-3.378-4.116-2.21h-.004zm-2.299 13.84L4.675 23.018c-.361.24-.753.347-1.134.347-1.072 0-2.067-.853-2.067-2.067V3.834c0-1.213.995-2.066 2.067-2.066.381 0 .773.107 1.134.346l13.174 8.732a2.06 2.06 0 0 1 0 3.437l.003.003z" fill="#fff"/>
    <path d="M5.7 5.51 3.417 3.994v17.148L5.7 19.627l8.798-5.83 1.851-1.227-1.851-1.228L5.7 5.51zM4.887 18.4V6.736l8.798 5.83-8.798 5.832z" fill="#fff"/>
    <path d="M6.596 10.035v5.063l3.818-2.532-3.818-2.531z" fill="#fff"/>
</svg>
