<svg width="150" height="40" viewBox="0 0 150 40" fill="none" xmlns="http://www.w3.org/2000/svg">
    <g clip-path="url(#llknosx3sa)" fill="#fff">
        <path d="m1.331 9.311 8.549 5.24 7.499 4.595a1 1 0 0 1 0 1.705l-7.5 4.595-7.025 4.309a1 1 0 0 1-1.523-.853V9.314m.191-1.381A1 1 0 0 0 0 8.786v22.428a1 1 0 0 0 1.523.853l9.082-5.568 9.217-5.648a1 1 0 0 0 0-1.705L10.61 13.5 1.522 7.933z"/>
        <path d="m4.274 14.445 4.377 2.68 4.69 2.873-4.69 2.873-4.377 2.681V14.445zm-1.325-2.23s-.007 0-.007.003v15.567s0 .003.007.003c.057 0 .473-.21.506-.232l5.922-3.628 6.011-3.685c.027-.016.367-.257.34-.276l-6.351-3.892-5.922-3.631c-.033-.019-.45-.232-.506-.232v.003z"/>
        <path d="m7.22 19.578.203.126.486.298-.486.297-.203.126v-.847zm-1.225-2.226c-.053 0-.106.034-.106.084v5.13c0 .051.05.085.106.085.02 0 .043-.006.063-.018l2.094-1.283 2.094-1.283c.056-.034.056-.1 0-.134L8.152 18.65l-2.094-1.283a.115.115 0 0 0-.063-.018v.003zM11.95 14.385 19.385 20l-7.435 5.615 10.528 6.452A1 1 0 0 0 24 31.214V8.786a1 1 0 0 0-1.522-.853L11.95 14.385z"/>
    </g>
    <path d="M38.272 31V8.6h4l7.584 14.912L57.408 8.6h4V31h-3.392V14.456L51.168 27.8h-2.624l-6.88-13.312V31h-3.392zm33.015.384c-1.92 0-3.434-.597-4.544-1.792-1.087-1.195-1.631-2.976-1.631-5.344v-9.12h3.392v8.768c0 3.072 1.258 4.608 3.775 4.608 1.26 0 2.294-.448 3.105-1.344.81-.896 1.216-2.176 1.216-3.84v-8.192h3.392V31h-3.008l-.256-2.784a5.599 5.599 0 0 1-2.176 2.336c-.94.555-2.027.832-3.265.832zM83.907 31V15.128h3.008l.255 2.784a5.454 5.454 0 0 1 2.144-2.304c.96-.576 2.06-.864 3.297-.864 1.92 0 3.423.597 4.511 1.792 1.11 1.195 1.665 2.976 1.665 5.344V31h-3.36v-8.768c0-3.072-1.26-4.608-3.777-4.608-1.258 0-2.303.448-3.136 1.344-.81.896-1.215 2.176-1.215 3.84V31h-3.393zm24.331.384c-1.92 0-3.435-.597-4.544-1.792-1.088-1.195-1.632-2.976-1.632-5.344v-9.12h3.392v8.768c0 3.072 1.258 4.608 3.776 4.608 1.258 0 2.293-.448 3.104-1.344.81-.896 1.216-2.176 1.216-3.84v-8.192h3.392V31h-3.008l-.256-2.784a5.6 5.6 0 0 1-2.176 2.336c-.939.555-2.027.832-3.264.832zM127.513 31c-1.558 0-2.795-.373-3.712-1.12-.918-.768-1.376-2.123-1.376-4.064v-7.84h-2.72v-2.848h2.72l.416-4.032h2.976v4.032h4.48v2.848h-4.48v7.84c0 .875.181 1.483.544 1.824.384.32 1.034.48 1.952.48h1.824V31h-2.624zm12.899.384c-1.558 0-2.944-.341-4.16-1.024a7.535 7.535 0 0 1-2.816-2.912c-.683-1.237-1.024-2.677-1.024-4.32 0-1.664.33-3.125.992-4.384.682-1.259 1.621-2.24 2.816-2.944 1.216-.704 2.624-1.056 4.224-1.056 1.557 0 2.912.352 4.064 1.056a7.236 7.236 0 0 1 2.688 2.752c.64 1.152.96 2.421.96 3.808 0 .213-.011.448-.032.704 0 .235-.011.501-.032.8H135.74c.106 1.536.608 2.71 1.504 3.52.917.79 1.973 1.184 3.168 1.184.96 0 1.76-.213 2.4-.64a4.041 4.041 0 0 0 1.472-1.792h3.392c-.427 1.493-1.28 2.741-2.56 3.744-1.259 1.003-2.827 1.504-4.704 1.504zm0-13.856c-1.131 0-2.134.341-3.008 1.024-.875.661-1.408 1.664-1.6 3.008h8.96c-.064-1.237-.502-2.219-1.312-2.944-.811-.725-1.824-1.088-3.04-1.088z" fill="#fff"/>
    <defs>
        <clipPath id="llknosx3sa">
            <path fill="#fff" transform="translate(0 7)" d="M0 0h24v26H0z"/>
        </clipPath>
    </defs>
</svg>
