<svg width="165" height="40" viewBox="0 0 165 40" fill="none" xmlns="http://www.w3.org/2000/svg">
    <path d="M39.556 32V6.8h4.5l8.532 16.776L61.084 6.8h4.5V32h-3.816V13.388L54.064 28.4h-2.952l-7.74-14.976V32h-3.816zm37.192.432c-2.16 0-3.864-.672-5.112-2.016-1.224-1.344-1.836-3.348-1.836-6.012v-10.26h3.816v9.864c0 3.456 1.416 5.184 4.248 5.184 1.416 0 2.58-.504 3.492-1.512.912-1.008 1.368-2.448 1.368-4.32v-9.216h3.816V32h-3.384l-.288-3.132a6.298 6.298 0 0 1-2.448 2.628c-1.056.624-2.28.936-3.672.936zM90.995 32V14.144h3.384l.288 3.132a6.135 6.135 0 0 1 2.412-2.592c1.08-.648 2.316-.972 3.708-.972 2.16 0 3.852.672 5.076 2.016 1.248 1.344 1.872 3.348 1.872 6.012V32h-3.78v-9.864c0-3.456-1.416-5.184-4.248-5.184-1.416 0-2.592.504-3.528 1.512-.912 1.008-1.368 2.448-1.368 4.32V32h-3.816zm27.422.432c-2.16 0-3.864-.672-5.112-2.016-1.224-1.344-1.836-3.348-1.836-6.012v-10.26h3.816v9.864c0 3.456 1.416 5.184 4.248 5.184 1.416 0 2.58-.504 3.492-1.512.912-1.008 1.368-2.448 1.368-4.32v-9.216h3.816V32h-3.384l-.288-3.132a6.298 6.298 0 0 1-2.448 2.628c-1.056.624-2.28.936-3.672.936zM140.152 32c-1.752 0-3.144-.42-4.176-1.26-1.032-.864-1.548-2.388-1.548-4.572v-8.82h-3.06v-3.204h3.06l.468-4.536h3.348v4.536h5.04v3.204h-5.04v8.82c0 .984.204 1.668.612 2.052.432.36 1.164.54 2.196.54h2.052V32h-2.952zm14.561.432c-1.752 0-3.312-.384-4.68-1.152a8.485 8.485 0 0 1-3.168-3.276c-.768-1.392-1.152-3.012-1.152-4.86 0-1.872.372-3.516 1.116-4.932.768-1.416 1.824-2.52 3.168-3.312 1.368-.792 2.952-1.188 4.752-1.188 1.752 0 3.276.396 4.572 1.188a8.14 8.14 0 0 1 3.024 3.096c.72 1.296 1.08 2.724 1.08 4.284 0 .24-.012.504-.036.792 0 .264-.012.564-.036.9h-13.896c.12 1.728.684 3.048 1.692 3.96 1.032.888 2.22 1.332 3.564 1.332 1.08 0 1.98-.24 2.7-.72a4.544 4.544 0 0 0 1.656-2.016h3.816c-.48 1.68-1.44 3.084-2.88 4.212-1.416 1.128-3.18 1.692-5.292 1.692zm0-15.588c-1.272 0-2.4.384-3.384 1.152-.984.744-1.584 1.872-1.8 3.384h10.08c-.072-1.392-.564-2.496-1.476-3.312-.912-.816-2.052-1.224-3.42-1.224z" fill="#fff"/>
    <g clip-path="url(#gxfrrzs3ia)" fill="#fff">
        <path d="m22.445 6.496-8.74 5.827L5.57 6.9a3.564 3.564 0 0 0-1.977-.604C1.611 6.295 0 7.916 0 9.908v20.223c0 1.992 1.61 3.613 3.593 3.613.702 0 1.383-.21 1.977-.604l8.165-5.447 8.71 5.808c1.95 1.303 4.555-.105 4.555-2.46V8.96c0-2.356-2.605-3.764-4.555-2.461v-.003zM4.666 31.772a1.942 1.942 0 0 1-1.076.331 1.965 1.965 0 0 1-1.963-1.972V9.908c0-1.158.946-1.972 1.963-1.972.362 0 .734.102 1.076.332l15.16 10.113c1.168.777 1.168 2.503 0 3.281l-15.16 10.11z"/>
        <path d="m6.157 12.26-2.53-1.686v18.891l2.53-1.686 9.58-6.39 2.051-1.368-2.051-1.368-9.58-6.392zm-.9 14.147V13.629l9.58 6.389-9.58 6.389z"/>
        <path d="M6.959 17.245v5.546l4.157-2.773-4.157-2.773z"/>
    </g>
    <defs>
        <clipPath id="gxfrrzs3ia">
            <path fill="#fff" transform="translate(0 6)" d="M0 0h27v28H0z"/>
        </clipPath>
    </defs>
</svg>
